<svg xmlns="http://www.w3.org/2000/svg" width="400" height="2000" viewBox="0 0 400 2000"><path fill="#0a0a1a" d="M0 0h400v2000H0z"/><path fill="#ff0" d="M145 0h110v200H145z"/><path fill="#ff0" d="M145 200v4.7a135 135 0 0 0 4 29l2.2 8.6 1.3 4c.4 1.6.7 2.4 1.2 3.8l1.2 3.6 1.1 3.4 1.1 3.1 1 3 1 2.8 1 2.6.7 2.4.8 2.3 2.3 8.5.5 2.1.5 2.2.4 2.3.5 2.4.4 2.5.5 2.7.5 3 .5 3 .5 3.4.7 3.5a180 180 0 0 0 4.5 20 154 154 0 0 0 5.5 16.7l3.3 8 1.6 3.7 1.6 3.5c.6 1.4 1 2 1.5 3.4l1.5 3.1 1.3 3c.6 1 .7 1.4 1.3 2.7l1.7 3.5 1.6 3.4 1.6 3.3 1.5 3.1 1.5 3 3.9 8 1.1 2.5 1 2.3a132 132 0 0 1 4.3 11.9l.3 1.2.2 1.1q0 .6.2 1v1.1l.2 1v3.1l-.1 1.2-.1 1.3-.2 1.4-.2 1.5-.3 1.6-.8 3.7-1.8 6.7-.7 2.5-.8 2.7-1 2.8-.8 3-2 6.4-1 3.4-1 3.5-2.9 11.4-.9 4a214 214 0 0 0-3.6 25.8 133 133 0 0 0-.2 17.6 149 149 0 0 0 .9 12.6l.4 4 .5 4 .6 3.7.5 3.6.6 3.5.6 3.3.6 3.2.5 3c.3 1.2.4 1.7.5 2.9q.3 1.3.5 2.6l.4 2.5.4 2.4.8 5.9.1 1.6v1.4l.1 1.3v2.2l-.1 1-.1.8-.1.7-.2.8q0 .3-.2.7l-.2.8q0 .3-.3.8l-.3.9-1 2a25 25 0 0 1-2.3 4l-2.2 3.4-1.4 1.8a68 68 0 0 1-5.1 6.2 125 125 0 0 1-9 9.5l-2.7 2.6-5.6 5.3-2.9 2.8-3 2.8-3.2 2.9-3.2 3-3.2 3-3.3 3-3.4 3-3.3 3.1c-1.4 1.3-2 2-3.5 3.2a505 505 0 0 0-17 16.5l-3.4 3.5a363 363 0 0 0-16.2 18 215.5 215.5 0 0 0-19.8 27.1l-4.8 8-2.3 4.2A181 181 0 0 0 61 770l-1.2 4.4-1 4.4-1.7 8.7a162.6 162.6 0 0 0 10 90.6l1.9 4.4 4.1 8.5 2.2 4.2A205 205 0 0 0 87.4 915l2.6 3.7 5.2 7.2 2.6 3.4 2.6 3.4 2.6 3.3 2.6 3.3 2.5 3.2 2.5 3 2.4 3 2.4 3 2.2 2.8c1 1 1.3 1.6 2.2 2.7l2 2.6 3.8 5 1.6 2.3 1.5 2.1 1.4 2 3.1 5.2.7 1.4.6 1.1.4 1 .5 1.4.1.4v.8l-.2.6-.2.7-.3 1-1.1 2.5-.8 1.6-.9 1.8-1 2-1.3 2.2-1.4 2.3-3.2 5.3-1.7 3-2 3c-.7 1.3-1 1.9-1.9 3.2l-2 3.5-2.2 3.6a211 211 0 0 0-6.5 12.1l-2.1 4.5a127 127 0 0 0-10.7 39.5 85 85 0 0 0 .5 20.3 86 86 0 0 0 4.7 20 92 92 0 0 0 8.1 18 97 97 0 0 0 6.7 10.6 109 109 0 0 0 7.4 9.6 152 152 0 0 0 15.8 16.7 238 238 0 0 0 16.5 14.5l4 3.4 4.2 3.3 4 3.2 4.1 3.1 4 3c1.5 1.3 2.3 2 3.9 3.1l3.8 3 3.7 2.8 3.5 2.8a459 459 0 0 1 18.1 15.3l2.4 2.2 5.8 6 1.5 1.7 1.2 1.6 1.1 1.4 1.7 2.4.5 1 .5.9.3.7.3.7.2.5.2.6.1.5.1.6.3 1.5v1.9l.1 1.3v3.1l-.2 1.8-.2 2-.2 2.2-.3 2.4-.3 2.6-.4 2.7-.4 3-.4 3-.4 3.2-.4 3.3-.4 3.5-.4 3.5-.4 3.7-.6 7.5-.2 3.9-.2 3.9a168 168 0 0 0 0 15.5l.3 7.5.3 3.6.2 3.5.3 3.5.6 6.4.3 3 .3 3 .2 2.7.3 2.6.1 2.5.2 2.2.1 2.1v5.4l-.3 5.2-.2 1.1-.5 2-.2 1-.4 1-.8 2.2-2 3.9-.8 1.5a51 51 0 0 1-5 7.2 75 75 0 0 1-5.3 6.6l-4.2 4.8-2.3 2.6-5 5.3-2.7 2.8-2.8 3-2.9 2.9-2.9 3-3 3-3 3.3-3 3.2-3.2 3.3-3.1 3.5-6.3 7-3 3.7a194 194 0 0 0-15 19.9 186 186 0 0 0-12.6 22.6 103 103 0 0 0-5.7 14.7 115 115 0 0 0-4.8 20 128 128 0 0 0-2 24 130 130 0 0 0 .8 16.8l1.3 11.2.4 3.4.5 3.3.4 3.2.5 3 .4 3 .4 2.8.4 2.7.3 2.6.3 2.5.3 2.4.2 2.3.2 2.3.2 2.2.1 2.1.1 2.1v10l-.2 2q0 1-.2 2l-.7 6.2-.3 2.1-.4 2.2-.4 2.2-.4 2.2-.5 2.3-.6 2.3-.5 2.3-.6 2.4-.7 2.4-.7 2.5-.7 2.5-.7 2.5-.8 2.5-.8 2.6-.9 2.5-1.7 5.2-1 2.6-1 2.6-.9 2.6-1 2.6-1 2.6-2 5.1-1.2 2.6-1 2.5-1.2 2.6-3.5 7.6-2.5 5-1.3 2.6L92 1736l-1.5 2.6-1.5 2.7-1.6 2.6-1.6 2.7-1.7 2.8-1.7 2.8-1.7 2.8-1.8 3-1.9 2.9-1.9 3c-.7 1.3-1.1 1.9-2 3.1-.7 1.3-1 2-1.9 3.2l-2 3.3-2 3.4-4.1 7.1-2 3.7-2.1 3.9-2.1 4a184 184 0 0 0-9.3 23 104 104 0 0 0-4 16.4c-.4 2.3-.6 3.5-.8 6-.3 2.4-.4 3-.5 6.2s-.2 6 0 9.9a68 68 0 0 0 4 19.3 71 71 0 0 0 7.6 16.5 81 81 0 0 0 9.3 13.3 98 98 0 0 0 10 10.6 119 119 0 0 0 10.1 8.9 192 192 0 0 0 15.1 11.3l5 3.4 4.8 3.3 4.7 3.1 4.6 3 4.3 3 4.2 2.7a209 209 0 0 1 13.4 9.7l2.5 2 4.8 4.5.8.8.4.5.1.2v-.2q-.2-.1-.3-.5l-.3-.7-.3-.7-.2-.8-.1-.6v-.2 1.6l-.1 1.6-.4 4.5-.2 2.9-.3 3.3-.3 3.7-.3 4-.1 4.4-.1 4.5h110v-3.1l.2-2 .2-2.3.2-2.7.3-3 .3-3.6.3-4 .2-4.5a112 112 0 0 0-9.6-49.3 84 84 0 0 0-7.1-12.7 92 92 0 0 0-8.5-11.3 114 114 0 0 0-14.2-14.5 147 147 0 0 0-14.8-12l-5-3.7-5-3.5-4.8-3.3-4.8-3.2c-1.9-1.3-2.8-2-4.7-3.1l-4.5-3-4.3-2.9-4-2.7a211 211 0 0 1-14.8-11l-1.5-1.4-1-1-.3-.4.2.3.6 1 1 1.8 1 2.7a25 25 0 0 1 1.5 7.3v4.2-.4l.2-.5.2-.7.4-1 .4-1.3.6-1.4.7-1.6 3-6 1.3-2.2 1.4-2.4 1.4-2.5 1.6-2.6 1.7-2.7 1.7-2.8 1.8-3 1.8-2.9 2-3c.7-1.2 1-1.9 1.9-3.1l2-3.2c.7-1.2 1-1.9 1.9-3.2l2-3.2 2-3.3c.7-1.3 1-2 1.9-3.3l2-3.4 1.8-3.4 2-3.4 1.8-3.5 1.9-3.4 1.8-3.5 1.8-3.4a281 281 0 0 0 6.6-14l1.6-3.4c.6-1.4 1-2 1.5-3.5.6-1.3 1-2 1.5-3.4l1.4-3.4 1.4-3.4 1.4-3.5 1.3-3.4 1.3-3.4 1.3-3.4 2.5-6.8 1.1-3.4 1.2-3.4 1.1-3.5 1.1-3.4c.4-1.4.7-2 1-3.5l1.1-3.5c.4-1.4.7-2 1-3.5l1-3.5 1-3.6 1-3.6a217 217 0 0 0 4-18.7 154 154 0 0 0 1.7-11.6l.5-4 1-12 .1-4 .2-8v-4l-.1-4-.2-3.8-.2-3.9-.3-3.8-.4-3.7-.3-3.7-.4-3.6-.5-3.5-.4-3.4-.5-3.3-.4-3.2-.5-3-.4-3-.4-2.8-.4-2.7-.3-2.6-.6-4.7-.2-2.1-.3-3.9v-6l.1-1.2.1-1.1a27 27 0 0 1 2-7.2l.4-1.1 1.3-2.7.9-1.4q.3-.8 1-1.6a47 47 0 0 1 3.6-5.4l1.5-2 1.7-2.2 1.8-2.2 6.4-7.2 2.3-2.6 5.1-5.5 2.7-2.8 2.8-2.9 3-3c1-1.2 1.7-1.8 2.9-3l3-3.1a320 320 0 0 0 12.3-13.3l9.4-10.9 3.1-3.8a203 203 0 0 0 21.9-34.5 115 115 0 0 0 6-14.6 111 111 0 0 0 4.2-15 116 116 0 0 0 3-19.5l.3-4.7.2-8.9v-4.2l-.2-4-.2-4-.2-3.7-1-10.2c0-1.2 0-1.9-.2-3l-.3-3-.3-2.9-.2-2.7-.2-2.5-.2-2.5-.1-2.4-.2-2.3v-2.2l-.1-2.1v-6.4l.1-2 .2-2.2.1-2.2.2-2.3.3-2.3.2-2.5.3-2.5.4-2.7.3-2.8.4-3 .4-3 .5-3.3.4-3.4.4-3.6.4-3.8.4-4a129 129 0 0 0 .4-17.9 123 123 0 0 0-6.4-36.8 98 98 0 0 0-6.7-16 105 105 0 0 0-8.8-15.1 120 120 0 0 0-10.3-13.7 153 153 0 0 0-11.3-12.4 206 206 0 0 0-16.1-15l-4.1-3.4-4.1-3.4a551 551 0 0 0-20.2-16l-4-3-3.7-3c-1.5-1-2.2-1.7-3.6-2.8l-3.6-2.8-3.4-2.7-3.2-2.6-3-2.5-2.8-2.5-7.1-6.6-1.9-1.9a71 71 0 0 1-5.3-6.5l-.4-.5-.1-.3v.3q.2.1.2.5l.2.6.2 1.6v1.5l-.1.6.1-.4.2-.6.4-1 .5-1.2 1.6-3.2a50 50 0 0 1 3.7-6.5l3.2-5.3 1.8-3 3.9-6.3 2-3.4 2.2-3.7a210 210 0 0 0 12.4-25.8 103 103 0 0 0 4.9-15.8 97 97 0 0 0 2.7-17.4 92 92 0 0 0 0-18.1 85 85 0 0 0-1.8-12 89 89 0 0 0-2.8-11.3 98 98 0 0 0-6-15.6 127 127 0 0 0-7.2-14l-5.2-8.4-2.6-4-2.7-3.8a198 198 0 0 0-10.6-14.1l-2.6-3.3-2.6-3.1-2.5-3.1-2.4-3-2.3-3-2.3-2.8-2.2-2.7-2-2.7c-1-1-1.3-1.6-2.1-2.6l-1.9-2.6-5-7-1.6-2.3-1.3-2.1-1.3-2-1.2-2-1-2-1-1.8-.9-1.8-.8-1.7-.7-1.6-.6-1.6-.6-1.5a66 66 0 0 1-2-7.2l-.2-1.4-.2-1.4-.2-1.4-.1-1.4-.1-5.8v-1.5l.2-1.5q0-.8.2-1.5 0-.9.2-1.6l.5-3.2.4-1.6a49 49 0 0 1 2.5-8.5l1.3-3.5.8-1.8.8-1.8 1-1.8 3-5.7 1.3-2 1.2-2a73 73 0 0 1 6-8.4c.8-.8 1.1-1.3 1.8-2.2l1.9-2.2 2-2.3 2-2.4a208 208 0 0 1 14.7-15.2l2.8-2.7 2.9-2.7 3-2.8 3-2.8 3-3 3.3-2.8 3.2-3 3.3-3 3.4-3.1 3.4-3.1 3.4-3.2 3.4-3.2 3.5-3.3 3.4-3.4 7-6.9 3.4-3.6 3.4-3.6a242 242 0 0 0 22.3-28.5 123 123 0 0 0 8-14 123 123 0 0 0 9.8-25.4 101 101 0 0 0 3.2-15.7 105 105 0 0 0 1.2-15.3 113 113 0 0 0-.4-14l-.8-8.7-.5-4-.5-3.9-.6-3.6-1.2-6.9-.6-3.1-.5-3-.5-2.8-.5-2.7-.4-2.5-.4-2.4-.3-2.2-.3-2.1-.2-2-.2-1.9-.1-1.8-.1-1.7v-6.4l.2-1.6.2-1.6.2-1.6q0-.8.3-1.7c0-.7.1-1 .3-1.8l.4-2 .9-4 .6-2.2.6-2.3.7-2.5.8-2.6.8-2.7.9-3 .9-3 1-3.1 1-3.3 1-3.5 1-3.6 1-3.8 1-3.9a177 177 0 0 0 4.7-41.2 120 120 0 0 0-3-24.8 123 123 0 0 0-5-18.5 155 155 0 0 0-6.4-16.4l-5-10.7-1.6-3.3-1.5-3.2-1.5-3-1.4-2.9-1.4-2.7-1.2-2.6-1.1-2.5-1.6-3.2-1.4-3.1-1.3-2.9-3.3-7.3-1-2.1q-.3-1.1-.7-2l-.7-2-1.7-5.2-.5-1.8-.4-1.9-.5-2-.4-2.1-.4-2.3-1-5.2-.4-2.8-.5-3.1-.6-3.3-.6-3.4-.6-3.7-.8-3.7-.8-3.8-4-15.6-1.2-3.8-2.3-7.3-1.2-3.4-1.1-3.2-1.1-3-1-2.9-.9-2.6-.8-2.4-1.3-4.2-.5-1.8-.4-1.6-.3-1.3-.2-1.3-.2-1.1-.1-1.1-.1-1v-1.2L255 0Z"/></svg>