<svg xmlns="http://www.w3.org/2000/svg" width="400" height="2000" viewBox="0 0 400 2000">
  <rect width="400" height="2000" fill="#0a0a1a"/>
  <rect x="145" y="0" width="110" height="200" fill="yellow"/>
  <path d="M 145.00,200.00 C 145.01,200.95 145.01,202.82 145.07,204.73 C 145.14,206.65 145.18,207.64 145.31,209.59 C 145.44,211.54 145.52,212.54 145.72,214.51 C 145.91,216.47 146.03,217.47 146.30,219.42 C 146.56,221.38 146.72,222.36 147.05,224.28 C 147.37,226.20 147.56,227.16 147.94,229.04 C 148.32,230.91 148.53,231.84 148.96,233.65 C 149.38,235.45 149.61,236.35 150.07,238.08 C 150.53,239.81 150.77,240.66 151.24,242.31 C 151.72,243.97 151.97,244.77 152.45,246.34 C 152.94,247.90 153.19,248.66 153.67,250.14 C 154.15,251.62 154.40,252.34 154.87,253.73 C 155.34,255.12 155.58,255.79 156.03,257.09 C 156.48,258.40 156.71,259.03 157.14,260.25 C 157.57,261.47 157.78,262.06 158.18,263.21 C 158.58,264.35 158.77,264.90 159.14,265.98 C 159.51,267.05 159.69,267.56 160.03,268.57 C 160.37,269.58 160.53,270.06 160.84,271.02 C 161.15,271.97 161.30,272.42 161.58,273.33 C 161.86,274.23 161.99,274.67 162.24,275.53 C 162.50,276.40 162.62,276.82 162.85,277.66 C 163.09,278.51 163.20,278.92 163.41,279.75 C 163.63,280.58 163.73,280.99 163.93,281.83 C 164.13,282.66 164.22,283.08 164.41,283.93 C 164.60,284.78 164.69,285.21 164.88,286.09 C 165.06,286.98 165.15,287.43 165.33,288.36 C 165.50,289.29 165.59,289.76 165.77,290.75 C 165.95,291.73 166.03,292.24 166.22,293.29 C 166.40,294.34 166.49,294.89 166.67,296.01 C 166.86,297.14 166.96,297.72 167.16,298.93 C 167.35,300.14 167.45,300.76 167.67,302.05 C 167.89,303.33 168.00,304.00 168.23,305.37 C 168.47,306.74 168.59,307.45 168.86,308.89 C 169.12,310.34 169.26,311.08 169.56,312.60 C 169.86,314.12 170.02,314.90 170.36,316.48 C 170.69,318.06 170.87,318.87 171.25,320.49 C 171.63,322.12 171.83,322.96 172.26,324.62 C 172.69,326.29 172.91,327.14 173.39,328.83 C 173.86,330.51 174.11,331.37 174.63,333.07 C 175.14,334.76 175.42,335.62 175.98,337.31 C 176.54,338.99 176.83,339.84 177.42,341.51 C 178.02,343.17 178.33,344.00 178.95,345.63 C 179.57,347.26 179.89,348.07 180.53,349.65 C 181.17,351.24 181.50,352.02 182.15,353.54 C 182.80,355.07 183.13,355.82 183.77,357.28 C 184.42,358.73 184.74,359.45 185.37,360.83 C 186.00,362.21 186.31,362.89 186.92,364.19 C 187.52,365.49 187.82,366.12 188.39,367.33 C 188.95,368.54 189.23,369.12 189.75,370.25 C 190.28,371.37 190.43,371.71 191.01,372.96 C 191.59,374.21 192.00,375.10 192.65,376.50 C 193.31,377.89 193.64,378.58 194.29,379.92 C 194.94,381.26 195.26,381.92 195.89,383.20 C 196.51,384.48 196.82,385.10 197.42,386.32 C 198.02,387.55 198.32,388.14 198.89,389.30 C 199.47,390.47 199.75,391.04 200.29,392.14 C 200.83,393.25 201.09,393.79 201.59,394.83 C 202.10,395.88 202.34,396.39 202.80,397.38 C 203.27,398.37 203.49,398.86 203.92,399.79 C 204.34,400.72 204.55,401.17 204.93,402.05 C 205.31,402.93 205.49,403.35 205.83,404.17 C 206.17,404.98 206.33,405.38 206.63,406.14 C 206.93,406.90 207.07,407.26 207.33,407.97 C 207.59,408.67 207.71,409.01 207.93,409.66 C 208.15,410.31 208.25,410.62 208.43,411.22 C 208.62,411.82 208.70,412.10 208.85,412.65 C 209.00,413.20 209.07,413.46 209.19,413.97 C 209.32,414.47 209.37,414.71 209.47,415.18 C 209.57,415.65 209.61,415.87 209.68,416.31 C 209.76,416.75 209.79,416.96 209.85,417.37 C 209.90,417.79 209.93,417.99 209.97,418.40 C 210.01,418.80 210.02,419.00 210.05,419.40 C 210.07,419.80 210.08,420.00 210.09,420.41 C 210.10,420.82 210.10,421.02 210.10,421.45 C 210.09,421.87 210.09,422.09 210.07,422.54 C 210.05,422.99 210.03,423.22 210.00,423.71 C 209.96,424.20 209.93,424.45 209.88,424.97 C 209.82,425.50 209.78,425.78 209.70,426.35 C 209.62,426.93 209.58,427.23 209.47,427.85 C 209.36,428.48 209.31,428.81 209.17,429.49 C 209.04,430.18 208.97,430.53 208.80,431.27 C 208.64,432.01 208.55,432.40 208.36,433.20 C 208.17,434.00 208.07,434.42 207.84,435.28 C 207.62,436.14 207.50,436.59 207.25,437.51 C 207.00,438.44 206.87,438.91 206.58,439.90 C 206.30,440.88 206.16,441.39 205.85,442.43 C 205.54,443.47 205.38,444.01 205.05,445.12 C 204.71,446.22 204.54,446.79 204.19,447.95 C 203.83,449.11 203.65,449.71 203.28,450.93 C 202.90,452.15 202.71,452.77 202.33,454.05 C 201.94,455.32 201.74,455.98 201.34,457.31 C 200.95,458.64 200.75,459.32 200.35,460.71 C 199.95,462.09 199.74,462.80 199.34,464.24 C 198.94,465.68 198.74,466.41 198.35,467.90 C 197.95,469.39 197.75,470.15 197.37,471.69 C 196.99,473.23 196.80,474.01 196.43,475.60 C 196.07,477.18 195.88,477.99 195.54,479.61 C 195.20,481.24 195.03,482.06 194.71,483.73 C 194.40,485.39 194.25,486.24 193.96,487.94 C 193.68,489.63 193.54,490.49 193.30,492.22 C 193.05,493.95 192.94,494.82 192.73,496.57 C 192.53,498.32 192.43,499.20 192.27,500.96 C 192.11,502.72 192.04,503.61 191.92,505.38 C 191.80,507.16 191.76,508.05 191.69,509.82 C 191.62,511.59 191.59,512.48 191.57,514.25 C 191.54,516.01 191.54,516.89 191.56,518.64 C 191.58,520.40 191.61,521.27 191.67,523.00 C 191.73,524.73 191.78,525.59 191.88,527.29 C 191.98,528.99 192.04,529.84 192.18,531.50 C 192.31,533.17 192.39,533.99 192.56,535.62 C 192.72,537.25 192.82,538.05 193.01,539.63 C 193.20,541.21 193.30,541.99 193.51,543.52 C 193.72,545.05 193.84,545.81 194.06,547.29 C 194.28,548.76 194.40,549.49 194.63,550.91 C 194.87,552.33 194.99,553.03 195.22,554.39 C 195.46,555.75 195.58,556.42 195.81,557.72 C 196.04,559.02 196.16,559.66 196.39,560.89 C 196.61,562.13 196.72,562.73 196.94,563.90 C 197.15,565.07 197.26,565.64 197.45,566.75 C 197.65,567.85 197.75,568.39 197.93,569.42 C 198.11,570.46 198.19,570.96 198.35,571.92 C 198.51,572.89 198.59,573.36 198.72,574.25 C 198.86,575.15 198.92,575.58 199.03,576.40 C 199.14,577.22 199.19,577.62 199.28,578.37 C 199.37,579.12 199.41,579.48 199.47,580.17 C 199.54,580.85 199.56,581.17 199.60,581.79 C 199.65,582.40 199.66,582.69 199.69,583.24 C 199.71,583.79 199.71,584.05 199.72,584.54 C 199.72,585.03 199.72,585.25 199.71,585.69 C 199.70,586.12 199.69,586.32 199.67,586.71 C 199.65,587.10 199.63,587.27 199.60,587.62 C 199.56,587.97 199.54,588.13 199.50,588.45 C 199.46,588.77 199.43,588.92 199.38,589.22 C 199.32,589.53 199.29,589.67 199.23,589.96 C 199.16,590.26 199.13,590.40 199.04,590.70 C 198.96,591.00 198.92,591.15 198.82,591.47 C 198.72,591.78 198.67,591.94 198.54,592.28 C 198.42,592.63 198.35,592.80 198.20,593.18 C 198.05,593.55 197.96,593.75 197.77,594.16 C 197.58,594.58 197.48,594.79 197.25,595.25 C 197.02,595.72 196.89,595.96 196.61,596.47 C 196.33,596.98 196.18,597.24 195.84,597.80 C 195.51,598.36 195.33,598.65 194.93,599.26 C 194.54,599.88 194.33,600.19 193.88,600.85 C 193.42,601.52 193.18,601.86 192.66,602.57 C 192.14,603.28 191.87,603.65 191.28,604.40 C 190.70,605.16 190.39,605.55 189.74,606.35 C 189.09,607.16 188.75,607.57 188.03,608.41 C 187.31,609.26 186.94,609.69 186.16,610.57 C 185.38,611.46 184.97,611.91 184.13,612.83 C 183.28,613.75 182.84,614.22 181.94,615.17 C 181.03,616.13 180.57,616.61 179.60,617.60 C 178.64,618.59 178.15,619.09 177.13,620.11 C 176.11,621.12 175.59,621.64 174.52,622.68 C 173.46,623.73 172.91,624.26 171.79,625.33 C 170.68,626.40 170.11,626.94 168.95,628.03 C 167.79,629.13 167.20,629.68 166.01,630.80 C 164.81,631.92 164.20,632.48 162.97,633.62 C 161.74,634.76 161.11,635.34 159.85,636.50 C 158.58,637.66 157.94,638.25 156.65,639.43 C 155.36,640.61 154.71,641.21 153.39,642.41 C 152.08,643.61 151.42,644.22 150.09,645.44 C 148.75,646.66 148.08,647.27 146.73,648.51 C 145.39,649.75 144.71,650.38 143.35,651.63 C 141.99,652.89 141.31,653.53 139.94,654.80 C 138.57,656.08 137.89,656.72 136.52,658.02 C 135.15,659.31 134.46,659.96 133.09,661.28 C 131.72,662.59 131.03,663.25 129.66,664.58 C 128.29,665.91 127.61,666.58 126.25,667.93 C 124.89,669.28 124.21,669.96 122.85,671.33 C 121.50,672.70 120.82,673.39 119.48,674.78 C 118.14,676.17 117.47,676.87 116.15,678.27 C 114.82,679.68 114.16,680.39 112.85,681.82 C 111.54,683.24 110.89,683.96 109.61,685.41 C 108.32,686.85 107.68,687.58 106.41,689.05 C 105.15,690.51 104.52,691.25 103.28,692.73 C 102.04,694.22 101.42,694.96 100.21,696.47 C 99.00,697.97 98.40,698.73 97.22,700.25 C 96.03,701.77 95.45,702.54 94.30,704.08 C 93.15,705.62 92.58,706.40 91.46,707.95 C 90.34,709.51 89.79,710.30 88.71,711.87 C 87.63,713.45 87.10,714.24 86.05,715.83 C 85.01,717.43 84.50,718.23 83.49,719.84 C 82.48,721.44 81.99,722.25 81.02,723.88 C 80.06,725.50 79.59,726.32 78.66,727.95 C 77.74,729.59 77.28,730.41 76.40,732.06 C 75.52,733.71 75.09,734.54 74.25,736.20 C 73.41,737.86 73.00,738.70 72.20,740.37 C 71.41,742.04 71.02,742.88 70.27,744.56 C 69.52,746.25 69.15,747.09 68.45,748.78 C 67.74,750.47 67.40,751.32 66.73,753.02 C 66.07,754.72 65.75,755.57 65.13,757.28 C 64.51,758.99 64.22,759.84 63.64,761.56 C 63.07,763.27 62.79,764.13 62.27,765.85 C 61.74,767.58 61.48,768.44 61.00,770.17 C 60.52,771.90 60.28,772.76 59.84,774.50 C 59.40,776.24 59.20,777.11 58.80,778.85 C 58.41,780.59 58.22,781.47 57.87,783.22 C 57.52,784.97 57.36,785.85 57.05,787.60 C 56.75,789.36 56.60,790.24 56.35,792.01 C 56.09,793.78 55.97,794.66 55.75,796.44 C 55.54,798.22 55.45,799.11 55.28,800.89 C 55.11,802.68 55.04,803.57 54.92,805.37 C 54.80,807.16 54.76,808.06 54.69,809.86 C 54.62,811.67 54.59,812.57 54.57,814.38 C 54.55,816.20 54.55,817.10 54.59,818.92 C 54.62,820.75 54.64,821.66 54.73,823.49 C 54.81,825.32 54.86,826.23 55.00,828.07 C 55.14,829.90 55.22,830.82 55.41,832.66 C 55.60,834.50 55.71,835.42 55.95,837.27 C 56.20,839.11 56.34,840.04 56.64,841.88 C 56.94,843.72 57.10,844.65 57.46,846.49 C 57.82,848.33 58.01,849.26 58.43,851.10 C 58.84,852.94 59.07,853.86 59.54,855.69 C 60.01,857.52 60.26,858.44 60.78,860.26 C 61.31,862.08 61.59,862.99 62.17,864.81 C 62.75,866.62 63.06,867.52 63.69,869.31 C 64.32,871.11 64.65,872.00 65.34,873.78 C 66.02,875.56 66.38,876.44 67.11,878.20 C 67.85,879.95 68.22,880.83 69.00,882.56 C 69.78,884.29 70.18,885.15 71.01,886.86 C 71.83,888.57 72.25,889.42 73.11,891.10 C 73.97,892.78 74.42,893.61 75.31,895.26 C 76.21,896.91 76.67,897.73 77.60,899.36 C 78.53,900.98 79.00,901.78 79.96,903.37 C 80.92,904.97 81.41,905.76 82.39,907.32 C 83.37,908.88 83.87,909.65 84.88,911.18 C 85.88,912.71 86.39,913.47 87.41,914.97 C 88.43,916.47 88.95,917.21 89.98,918.68 C 91.01,920.14 91.53,920.87 92.58,922.31 C 93.62,923.74 94.14,924.45 95.19,925.86 C 96.24,927.26 96.76,927.96 97.81,929.33 C 98.85,930.71 99.38,931.39 100.42,932.73 C 101.46,934.07 101.98,934.74 103.02,936.05 C 104.05,937.36 104.57,938.01 105.59,939.29 C 106.61,940.57 107.12,941.20 108.12,942.45 C 109.12,943.70 109.62,944.31 110.60,945.53 C 111.58,946.75 112.06,947.35 113.02,948.53 C 113.97,949.71 114.44,950.29 115.36,951.44 C 116.28,952.59 116.74,953.15 117.62,954.26 C 118.51,955.38 118.94,955.92 119.78,957.00 C 120.63,958.07 121.04,958.60 121.84,959.63 C 122.63,960.66 123.02,961.17 123.77,962.16 C 124.52,963.15 124.88,963.63 125.57,964.57 C 126.27,965.52 126.60,965.98 127.24,966.87 C 127.87,967.76 128.17,968.20 128.75,969.04 C 129.32,969.88 129.59,970.29 130.11,971.07 C 130.62,971.85 130.86,972.23 131.30,972.95 C 131.75,973.67 131.95,974.01 132.33,974.67 C 132.72,975.32 132.89,975.63 133.20,976.21 C 133.52,976.79 133.66,977.07 133.92,977.58 C 134.17,978.08 134.28,978.32 134.48,978.75 C 134.67,979.18 134.75,979.37 134.90,979.72 C 135.04,980.07 135.10,980.23 135.19,980.50 C 135.29,980.77 135.33,980.89 135.39,981.08 C 135.45,981.28 135.47,981.36 135.50,981.48 C 135.53,981.61 135.54,981.65 135.56,981.72 C 135.57,981.79 135.57,981.81 135.57,981.83 C 135.58,981.85 135.58,981.84 135.58,981.83 C 135.57,981.83 135.57,981.81 135.57,981.79 C 135.57,981.76 135.57,981.74 135.57,981.73 C 135.57,981.71 135.57,981.70 135.57,981.71 C 135.57,981.72 135.57,981.72 135.57,981.77 C 135.56,981.83 135.56,981.86 135.53,981.97 C 135.51,982.07 135.50,982.14 135.46,982.32 C 135.42,982.49 135.39,982.60 135.32,982.85 C 135.24,983.11 135.20,983.25 135.09,983.59 C 134.97,983.93 134.91,984.12 134.75,984.54 C 134.59,984.97 134.50,985.20 134.28,985.71 C 134.07,986.22 133.95,986.50 133.67,987.10 C 133.40,987.69 133.25,988.01 132.91,988.69 C 132.58,989.37 132.39,989.73 132.00,990.49 C 131.60,991.25 131.38,991.65 130.92,992.49 C 130.46,993.32 130.22,993.76 129.69,994.67 C 129.17,995.58 128.90,996.06 128.32,997.04 C 127.74,998.03 127.43,998.54 126.79,999.59 C 126.16,1000.65 125.83,1001.19 125.14,1002.31 C 124.45,1003.44 124.09,1004.02 123.36,1005.21 C 122.63,1006.40 122.25,1007.02 121.48,1008.28 C 120.71,1009.55 120.31,1010.19 119.50,1011.53 C 118.69,1012.87 118.28,1013.55 117.44,1014.96 C 116.61,1016.37 116.18,1017.09 115.33,1018.58 C 114.47,1020.07 114.04,1020.84 113.17,1022.41 C 112.30,1023.99 111.86,1024.79 110.99,1026.45 C 110.12,1028.12 109.68,1028.97 108.82,1030.73 C 107.96,1032.49 107.52,1033.39 106.68,1035.25 C 105.84,1037.11 105.41,1038.07 104.60,1040.04 C 103.79,1042.01 103.39,1043.02 102.63,1045.10 C 101.87,1047.19 101.50,1048.26 100.81,1050.46 C 100.11,1052.67 99.78,1053.80 99.18,1056.12 C 98.57,1058.44 98.29,1059.63 97.80,1062.07 C 97.31,1064.50 97.08,1065.75 96.73,1068.29 C 96.37,1070.82 96.22,1072.12 96.02,1074.75 C 95.82,1077.37 95.75,1078.71 95.72,1081.39 C 95.69,1084.08 95.72,1085.45 95.88,1088.17 C 96.04,1090.88 96.16,1092.26 96.51,1094.98 C 96.86,1097.71 97.09,1099.08 97.62,1101.77 C 98.16,1104.46 98.48,1105.81 99.20,1108.45 C 99.91,1111.08 100.32,1112.39 101.20,1114.95 C 102.08,1117.50 102.57,1118.76 103.59,1121.22 C 104.62,1123.67 105.17,1124.88 106.32,1127.23 C 107.47,1129.57 108.08,1130.72 109.34,1132.95 C 110.59,1135.19 111.25,1136.28 112.59,1138.40 C 113.93,1140.52 114.63,1141.55 116.04,1143.57 C 117.45,1145.59 118.17,1146.57 119.64,1148.48 C 121.11,1150.40 121.86,1151.33 123.38,1153.16 C 124.89,1154.98 125.67,1155.87 127.22,1157.62 C 128.77,1159.36 129.56,1160.21 131.15,1161.88 C 132.73,1163.55 133.53,1164.36 135.14,1165.97 C 136.75,1167.57 137.56,1168.35 139.19,1169.90 C 140.82,1171.44 141.64,1172.20 143.28,1173.69 C 144.92,1175.19 145.74,1175.92 147.39,1177.37 C 149.04,1178.81 149.87,1179.53 151.53,1180.93 C 153.18,1182.34 154.01,1183.03 155.66,1184.39 C 157.32,1185.76 158.15,1186.44 159.79,1187.77 C 161.44,1189.10 162.27,1189.76 163.90,1191.06 C 165.54,1192.36 166.36,1193.01 167.98,1194.28 C 169.60,1195.55 170.41,1196.18 172.00,1197.42 C 173.60,1198.66 174.40,1199.28 175.97,1200.49 C 177.54,1201.71 178.32,1202.31 179.86,1203.50 C 181.39,1204.69 182.16,1205.28 183.65,1206.44 C 185.15,1207.61 185.89,1208.18 187.35,1209.32 C 188.80,1210.46 189.52,1211.02 190.92,1212.13 C 192.32,1213.24 193.01,1213.79 194.35,1214.87 C 195.70,1215.95 196.36,1216.48 197.64,1217.53 C 198.92,1218.58 199.55,1219.10 200.76,1220.12 C 201.97,1221.14 202.57,1221.65 203.71,1222.63 C 204.85,1223.62 205.40,1224.10 206.47,1225.05 C 207.53,1226.00 208.05,1226.47 209.03,1227.38 C 210.01,1228.29 210.49,1228.73 211.39,1229.60 C 212.29,1230.47 212.72,1230.89 213.53,1231.71 C 214.34,1232.53 214.73,1232.93 215.46,1233.71 C 216.18,1234.48 216.52,1234.85 217.17,1235.57 C 217.81,1236.29 218.10,1236.64 218.66,1237.30 C 219.21,1237.96 219.47,1238.28 219.94,1238.88 C 220.42,1239.49 220.63,1239.78 221.03,1240.32 C 221.42,1240.86 221.60,1241.12 221.92,1241.60 C 222.25,1242.09 222.39,1242.31 222.65,1242.74 C 222.91,1243.16 223.02,1243.36 223.23,1243.73 C 223.43,1244.09 223.52,1244.26 223.68,1244.58 C 223.84,1244.90 223.91,1245.04 224.03,1245.32 C 224.15,1245.59 224.20,1245.72 224.30,1245.96 C 224.39,1246.21 224.43,1246.32 224.51,1246.54 C 224.58,1246.77 224.62,1246.87 224.68,1247.09 C 224.74,1247.31 224.77,1247.41 224.82,1247.64 C 224.88,1247.87 224.90,1247.98 224.95,1248.24 C 225.00,1248.49 225.02,1248.62 225.06,1248.91 C 225.10,1249.20 225.12,1249.35 225.16,1249.68 C 225.19,1250.02 225.21,1250.20 225.23,1250.60 C 225.26,1250.99 225.27,1251.20 225.28,1251.67 C 225.30,1252.13 225.30,1252.38 225.30,1252.91 C 225.30,1253.44 225.30,1253.73 225.28,1254.34 C 225.26,1254.95 225.24,1255.27 225.21,1255.96 C 225.17,1256.65 225.14,1257.01 225.09,1257.78 C 225.03,1258.55 224.99,1258.95 224.91,1259.79 C 224.83,1260.64 224.79,1261.08 224.68,1262.00 C 224.58,1262.92 224.53,1263.40 224.41,1264.39 C 224.29,1265.38 224.22,1265.90 224.09,1266.96 C 223.95,1268.02 223.87,1268.57 223.72,1269.70 C 223.57,1270.83 223.49,1271.42 223.33,1272.61 C 223.17,1273.80 223.09,1274.42 222.92,1275.67 C 222.75,1276.92 222.66,1277.57 222.49,1278.88 C 222.32,1280.18 222.23,1280.85 222.07,1282.21 C 221.90,1283.57 221.81,1284.27 221.65,1285.67 C 221.49,1287.07 221.41,1287.79 221.26,1289.24 C 221.10,1290.68 221.03,1291.42 220.89,1292.90 C 220.75,1294.38 220.69,1295.13 220.57,1296.64 C 220.45,1298.15 220.39,1298.91 220.29,1300.44 C 220.19,1301.97 220.15,1302.75 220.07,1304.29 C 220.00,1305.84 219.96,1306.62 219.91,1308.18 C 219.86,1309.73 219.84,1310.52 219.82,1312.08 C 219.79,1313.63 219.78,1314.42 219.78,1315.97 C 219.78,1317.52 219.79,1318.30 219.81,1319.84 C 219.83,1321.39 219.85,1322.16 219.90,1323.68 C 219.95,1325.20 219.98,1325.96 220.04,1327.46 C 220.11,1328.96 220.15,1329.70 220.23,1331.17 C 220.32,1332.64 220.36,1333.37 220.46,1334.80 C 220.56,1336.23 220.62,1336.94 220.73,1338.33 C 220.84,1339.73 220.89,1340.41 221.01,1341.76 C 221.13,1343.11 221.19,1343.77 221.31,1345.07 C 221.43,1346.36 221.49,1347.00 221.61,1348.24 C 221.73,1349.49 221.79,1350.10 221.90,1351.28 C 222.01,1352.47 222.07,1353.05 222.18,1354.18 C 222.28,1355.31 222.34,1355.86 222.43,1356.93 C 222.53,1357.99 222.57,1358.51 222.66,1359.52 C 222.74,1360.52 222.78,1361.01 222.84,1361.95 C 222.91,1362.89 222.94,1363.34 222.99,1364.22 C 223.04,1365.09 223.07,1365.51 223.10,1366.32 C 223.13,1367.14 223.15,1367.52 223.16,1368.27 C 223.18,1369.02 223.19,1369.37 223.19,1370.06 C 223.19,1370.74 223.18,1371.07 223.17,1371.69 C 223.15,1372.32 223.14,1372.61 223.11,1373.19 C 223.09,1373.76 223.07,1374.03 223.02,1374.55 C 222.98,1375.07 222.96,1375.31 222.90,1375.79 C 222.85,1376.27 222.82,1376.50 222.75,1376.94 C 222.69,1377.38 222.65,1377.59 222.58,1378.01 C 222.50,1378.43 222.46,1378.63 222.37,1379.03 C 222.28,1379.43 222.23,1379.63 222.13,1380.02 C 222.02,1380.42 221.97,1380.61 221.85,1381.01 C 221.73,1381.41 221.66,1381.61 221.52,1382.03 C 221.38,1382.44 221.30,1382.65 221.13,1383.08 C 220.96,1383.52 220.87,1383.74 220.67,1384.20 C 220.47,1384.66 220.36,1384.90 220.13,1385.40 C 219.89,1385.90 219.76,1386.16 219.48,1386.70 C 219.20,1387.24 219.05,1387.52 218.73,1388.10 C 218.40,1388.68 218.23,1388.98 217.85,1389.61 C 217.47,1390.24 217.27,1390.56 216.83,1391.24 C 216.40,1391.91 216.17,1392.26 215.68,1392.98 C 215.18,1393.70 214.92,1394.07 214.37,1394.84 C 213.82,1395.61 213.53,1396.00 212.91,1396.81 C 212.30,1397.62 211.98,1398.04 211.30,1398.89 C 210.63,1399.75 210.28,1400.18 209.54,1401.08 C 208.81,1401.97 208.42,1402.43 207.63,1403.36 C 206.83,1404.30 206.42,1404.77 205.57,1405.74 C 204.72,1406.71 204.28,1407.21 203.38,1408.22 C 202.47,1409.22 202.00,1409.73 201.05,1410.77 C 200.09,1411.81 199.60,1412.34 198.59,1413.42 C 197.59,1414.49 197.08,1415.03 196.03,1416.14 C 194.98,1417.24 194.44,1417.80 193.36,1418.94 C 192.27,1420.08 191.71,1420.65 190.59,1421.82 C 189.47,1422.98 188.89,1423.57 187.74,1424.77 C 186.58,1425.96 186.00,1426.57 184.81,1427.79 C 183.63,1429.02 183.03,1429.64 181.83,1430.89 C 180.62,1432.14 180.01,1432.78 178.79,1434.06 C 177.57,1435.35 176.95,1436.00 175.71,1437.31 C 174.48,1438.63 173.85,1439.29 172.61,1440.64 C 171.36,1441.99 170.73,1442.67 169.48,1444.05 C 168.23,1445.43 167.60,1446.13 166.35,1447.54 C 165.10,1448.96 164.47,1449.68 163.22,1451.13 C 161.98,1452.58 161.35,1453.31 160.11,1454.80 C 158.87,1456.29 158.25,1457.04 157.03,1458.57 C 155.80,1460.10 155.19,1460.87 153.98,1462.44 C 152.78,1464.01 152.18,1464.80 150.99,1466.41 C 149.81,1468.03 149.22,1468.84 148.06,1470.50 C 146.91,1472.15 146.33,1472.99 145.21,1474.69 C 144.09,1476.39 143.54,1477.26 142.45,1479.00 C 141.37,1480.75 140.84,1481.63 139.80,1483.42 C 138.76,1485.21 138.25,1486.12 137.27,1487.96 C 136.28,1489.79 135.80,1490.72 134.87,1492.60 C 133.94,1494.47 133.49,1495.42 132.63,1497.34 C 131.76,1499.25 131.34,1500.22 130.55,1502.17 C 129.75,1504.11 129.37,1505.10 128.64,1507.07 C 127.92,1509.05 127.58,1510.04 126.93,1512.04 C 126.28,1514.03 125.98,1515.04 125.41,1517.04 C 124.84,1519.05 124.58,1520.06 124.09,1522.06 C 123.61,1524.07 123.39,1525.08 122.98,1527.08 C 122.57,1529.09 122.39,1530.09 122.06,1532.08 C 121.74,1534.07 121.59,1535.06 121.34,1537.02 C 121.09,1538.99 120.98,1539.96 120.80,1541.90 C 120.62,1543.83 120.55,1544.79 120.44,1546.68 C 120.32,1548.58 120.28,1549.51 120.23,1551.36 C 120.17,1553.21 120.16,1554.13 120.16,1555.93 C 120.15,1557.72 120.17,1558.61 120.21,1560.36 C 120.25,1562.11 120.29,1562.97 120.37,1564.66 C 120.45,1566.35 120.50,1567.18 120.61,1568.81 C 120.72,1570.45 120.79,1571.25 120.93,1572.82 C 121.07,1574.40 121.14,1575.17 121.30,1576.69 C 121.46,1578.21 121.54,1578.95 121.71,1580.41 C 121.88,1581.87 121.97,1582.59 122.15,1583.99 C 122.33,1585.40 122.43,1586.08 122.61,1587.43 C 122.79,1588.78 122.89,1589.44 123.07,1590.74 C 123.25,1592.03 123.35,1592.67 123.53,1593.91 C 123.71,1595.16 123.80,1595.77 123.97,1596.96 C 124.15,1598.15 124.23,1598.74 124.40,1599.89 C 124.56,1601.03 124.65,1601.59 124.80,1602.70 C 124.96,1603.80 125.03,1604.34 125.18,1605.40 C 125.32,1606.46 125.39,1606.98 125.52,1607.99 C 125.65,1609.01 125.71,1609.51 125.83,1610.50 C 125.95,1611.48 126.00,1611.96 126.10,1612.91 C 126.21,1613.86 126.25,1614.32 126.34,1615.24 C 126.43,1616.16 126.47,1616.60 126.54,1617.49 C 126.61,1618.38 126.65,1618.82 126.70,1619.69 C 126.76,1620.55 126.79,1620.98 126.83,1621.82 C 126.87,1622.67 126.89,1623.08 126.92,1623.91 C 126.95,1624.74 126.96,1625.14 126.98,1625.96 C 126.99,1626.77 126.99,1627.17 126.99,1627.98 C 126.99,1628.78 126.99,1629.18 126.97,1629.98 C 126.96,1630.78 126.95,1631.17 126.92,1631.97 C 126.89,1632.77 126.87,1633.16 126.83,1633.96 C 126.78,1634.75 126.76,1635.15 126.70,1635.95 C 126.64,1636.75 126.61,1637.15 126.53,1637.96 C 126.46,1638.76 126.42,1639.17 126.33,1639.98 C 126.24,1640.80 126.19,1641.21 126.08,1642.03 C 125.98,1642.86 125.92,1643.28 125.80,1644.11 C 125.68,1644.95 125.61,1645.38 125.48,1646.23 C 125.34,1647.08 125.26,1647.51 125.11,1648.38 C 124.96,1649.25 124.87,1649.68 124.70,1650.57 C 124.53,1651.45 124.44,1651.90 124.26,1652.80 C 124.07,1653.70 123.97,1654.15 123.77,1655.07 C 123.56,1655.98 123.46,1656.44 123.24,1657.38 C 123.02,1658.31 122.91,1658.78 122.67,1659.72 C 122.43,1660.67 122.31,1661.15 122.06,1662.11 C 121.81,1663.07 121.68,1663.55 121.42,1664.53 C 121.15,1665.50 121.01,1666.00 120.73,1666.98 C 120.45,1667.97 120.31,1668.47 120.02,1669.46 C 119.72,1670.46 119.57,1670.97 119.26,1671.97 C 118.96,1672.98 118.80,1673.49 118.48,1674.51 C 118.16,1675.52 118.00,1676.03 117.67,1677.06 C 117.33,1678.08 117.17,1678.60 116.82,1679.63 C 116.48,1680.66 116.31,1681.17 115.95,1682.21 C 115.60,1683.24 115.42,1683.76 115.05,1684.80 C 114.69,1685.83 114.51,1686.35 114.13,1687.39 C 113.76,1688.43 113.57,1688.95 113.19,1689.99 C 112.81,1691.03 112.61,1691.55 112.22,1692.59 C 111.83,1693.62 111.63,1694.14 111.23,1695.18 C 110.83,1696.22 110.63,1696.74 110.22,1697.77 C 109.81,1698.80 109.60,1699.32 109.18,1700.35 C 108.77,1701.38 108.56,1701.90 108.13,1702.93 C 107.70,1703.95 107.49,1704.47 107.05,1705.49 C 106.62,1706.51 106.40,1707.03 105.95,1708.05 C 105.51,1709.07 105.28,1709.58 104.83,1710.59 C 104.38,1711.61 104.15,1712.12 103.68,1713.13 C 103.22,1714.15 102.99,1714.65 102.51,1715.67 C 102.04,1716.68 101.80,1717.18 101.31,1718.19 C 100.83,1719.20 100.58,1719.71 100.08,1720.72 C 99.59,1721.73 99.34,1722.23 98.83,1723.24 C 98.32,1724.26 98.06,1724.76 97.54,1725.77 C 97.01,1726.79 96.75,1727.29 96.21,1728.31 C 95.67,1729.33 95.40,1729.84 94.85,1730.86 C 94.30,1731.88 94.02,1732.39 93.45,1733.42 C 92.88,1734.45 92.59,1734.97 92.01,1736.01 C 91.42,1737.05 91.13,1737.57 90.53,1738.61 C 89.92,1739.66 89.62,1740.19 89.00,1741.25 C 88.38,1742.31 88.07,1742.84 87.43,1743.92 C 86.79,1744.99 86.47,1745.53 85.81,1746.63 C 85.15,1747.72 84.82,1748.27 84.14,1749.37 C 83.47,1750.48 83.12,1751.04 82.43,1752.17 C 81.73,1753.30 81.38,1753.87 80.67,1755.02 C 79.96,1756.17 79.59,1756.75 78.86,1757.93 C 78.13,1759.10 77.76,1759.69 77.01,1760.90 C 76.26,1762.10 75.88,1762.70 75.12,1763.93 C 74.35,1765.16 73.97,1765.78 73.18,1767.05 C 72.40,1768.31 72.01,1768.95 71.21,1770.24 C 70.42,1771.54 70.02,1772.19 69.21,1773.53 C 68.41,1774.86 68.00,1775.53 67.19,1776.91 C 66.37,1778.28 65.96,1778.98 65.14,1780.39 C 64.31,1781.81 63.90,1782.53 63.07,1784.00 C 62.25,1785.47 61.83,1786.21 61.01,1787.73 C 60.18,1789.25 59.77,1790.02 58.95,1791.60 C 58.13,1793.18 57.71,1793.98 56.90,1795.62 C 56.09,1797.27 55.69,1798.10 54.89,1799.82 C 54.10,1801.53 53.70,1802.40 52.93,1804.19 C 52.16,1805.98 51.78,1806.89 51.04,1808.76 C 50.30,1810.63 49.94,1811.58 49.24,1813.54 C 48.55,1815.50 48.20,1816.50 47.56,1818.55 C 46.92,1820.60 46.61,1821.64 46.04,1823.79 C 45.47,1825.93 45.19,1827.03 44.71,1829.27 C 44.22,1831.51 43.99,1832.65 43.61,1834.98 C 43.22,1837.31 43.05,1838.47 42.78,1840.92 C 42.52,1843.37 42.35,1843.99 42.27,1847.22 C 42.19,1850.45 42.09,1853.13 42.38,1857.08 C 42.68,1861.04 42.98,1863.13 43.76,1866.99 C 44.54,1870.86 45.09,1872.80 46.29,1876.42 C 47.48,1880.04 48.23,1881.80 49.74,1885.11 C 51.25,1888.41 52.12,1889.97 53.86,1892.94 C 55.59,1895.90 56.53,1897.28 58.40,1899.93 C 60.27,1902.57 61.26,1903.80 63.21,1906.16 C 65.16,1908.52 66.16,1909.61 68.16,1911.74 C 70.16,1913.87 71.17,1914.86 73.19,1916.79 C 75.21,1918.73 76.23,1919.64 78.26,1921.41 C 80.29,1923.19 81.30,1924.04 83.33,1925.69 C 85.36,1927.34 86.38,1928.13 88.40,1929.68 C 90.43,1931.23 91.44,1931.98 93.45,1933.45 C 95.46,1934.91 96.46,1935.62 98.44,1937.02 C 100.43,1938.41 101.42,1939.09 103.37,1940.43 C 105.33,1941.76 106.30,1942.41 108.21,1943.69 C 110.12,1944.97 111.06,1945.60 112.92,1946.83 C 114.77,1948.06 115.68,1948.66 117.47,1949.84 C 119.25,1951.03 120.13,1951.61 121.82,1952.74 C 123.52,1953.88 124.35,1954.43 125.95,1955.52 C 127.55,1956.60 128.33,1957.13 129.81,1958.17 C 131.30,1959.20 132.01,1959.70 133.37,1960.68 C 134.73,1961.65 135.38,1962.13 136.59,1963.03 C 137.80,1963.94 138.38,1964.38 139.44,1965.22 C 140.50,1966.05 140.99,1966.46 141.89,1967.20 C 142.79,1967.95 143.20,1968.31 143.93,1968.96 C 144.66,1969.61 144.98,1969.92 145.53,1970.46 C 146.09,1971.00 146.33,1971.24 146.72,1971.66 C 147.11,1972.07 147.26,1972.25 147.50,1972.53 C 147.74,1972.80 147.81,1972.91 147.91,1973.04 C 148.02,1973.18 148.03,1973.21 148.03,1973.20 C 148.03,1973.19 147.99,1973.15 147.91,1973.01 C 147.84,1972.88 147.78,1972.77 147.67,1972.53 C 147.56,1972.30 147.48,1972.13 147.37,1971.84 C 147.26,1971.54 147.19,1971.36 147.10,1971.05 C 147.00,1970.75 146.96,1970.57 146.90,1970.31 C 146.84,1970.04 146.82,1969.90 146.79,1969.74 C 146.76,1969.57 146.76,1969.49 146.75,1969.46 C 146.74,1969.43 146.75,1969.44 146.75,1969.57 C 146.76,1969.71 146.77,1969.81 146.77,1970.13 C 146.77,1970.45 146.77,1970.66 146.75,1971.17 C 146.73,1971.69 146.72,1971.99 146.67,1972.70 C 146.63,1973.41 146.60,1973.81 146.53,1974.71 C 146.46,1975.61 146.42,1976.11 146.33,1977.19 C 146.23,1978.26 146.17,1978.85 146.07,1980.10 C 145.96,1981.34 145.89,1982.02 145.78,1983.42 C 145.66,1984.82 145.60,1985.57 145.49,1987.11 C 145.38,1988.65 145.32,1989.47 145.24,1991.14 C 145.15,1992.80 145.11,1993.68 145.07,1995.45 C 145.02,1997.22 145.01,1999.09 145.00,2000.00 L 255.00,2000.00 C 255.00,1999.71 255.00,1999.18 255.02,1998.55 C 255.04,1997.92 255.05,1997.60 255.09,1996.86 C 255.13,1996.13 255.15,1995.75 255.21,1994.89 C 255.27,1994.03 255.31,1993.58 255.39,1992.58 C 255.48,1991.58 255.53,1991.06 255.63,1989.90 C 255.73,1988.75 255.79,1988.14 255.90,1986.81 C 256.02,1985.49 256.08,1984.79 256.20,1983.29 C 256.31,1981.79 256.38,1980.99 256.48,1979.30 C 256.57,1977.61 256.63,1976.71 256.69,1974.83 C 256.75,1972.94 256.78,1971.95 256.77,1969.87 C 256.76,1967.79 256.75,1966.69 256.63,1964.43 C 256.52,1962.16 256.45,1960.97 256.21,1958.54 C 255.96,1956.11 255.81,1954.83 255.39,1952.26 C 254.97,1949.70 254.73,1948.36 254.11,1945.69 C 253.49,1943.03 253.14,1941.65 252.31,1938.95 C 251.48,1936.24 251.01,1934.86 249.97,1932.16 C 248.92,1929.47 248.34,1928.10 247.09,1925.47 C 245.84,1922.83 245.16,1921.52 243.73,1918.99 C 242.31,1916.45 241.54,1915.21 239.96,1912.80 C 238.38,1910.39 237.55,1909.22 235.85,1906.96 C 234.15,1904.69 233.26,1903.60 231.47,1901.47 C 229.68,1899.35 228.75,1898.33 226.89,1896.34 C 225.03,1894.36 224.08,1893.40 222.17,1891.54 C 220.25,1889.68 219.28,1888.79 217.33,1887.04 C 215.39,1885.29 214.40,1884.45 212.43,1882.80 C 210.46,1881.14 209.46,1880.35 207.47,1878.78 C 205.49,1877.22 204.49,1876.46 202.50,1874.97 C 200.51,1873.47 199.51,1872.75 197.53,1871.32 C 195.54,1869.90 194.55,1869.20 192.58,1867.83 C 190.62,1866.47 189.63,1865.80 187.70,1864.48 C 185.76,1863.17 184.80,1862.52 182.90,1861.26 C 181.01,1859.99 180.07,1859.37 178.24,1858.16 C 176.40,1856.94 175.49,1856.34 173.73,1855.17 C 171.97,1854.00 171.10,1853.43 169.43,1852.31 C 167.77,1851.19 166.95,1850.64 165.39,1849.57 C 163.83,1848.51 163.07,1847.99 161.64,1846.98 C 160.21,1845.98 159.52,1845.49 158.24,1844.55 C 156.96,1843.62 156.35,1843.17 155.24,1842.32 C 154.13,1841.47 153.61,1841.06 152.69,1840.31 C 151.77,1839.56 151.35,1839.21 150.64,1838.59 C 149.93,1837.96 149.62,1837.67 149.12,1837.21 C 148.63,1836.74 148.44,1836.53 148.18,1836.26 C 147.91,1835.99 147.84,1835.88 147.80,1835.84 C 147.76,1835.80 147.81,1835.83 147.97,1836.07 C 148.13,1836.32 148.29,1836.50 148.61,1837.06 C 148.92,1837.63 149.16,1837.99 149.56,1838.89 C 149.97,1839.80 150.23,1840.36 150.62,1841.58 C 151.02,1842.80 151.25,1843.54 151.54,1845.01 C 151.83,1846.47 151.96,1847.36 152.08,1848.92 C 152.20,1850.47 152.12,1851.95 152.13,1852.78 C 152.14,1853.61 152.11,1853.03 152.11,1853.08 C 152.11,1853.13 152.11,1853.09 152.12,1853.02 C 152.13,1852.95 152.14,1852.89 152.18,1852.73 C 152.21,1852.57 152.23,1852.47 152.30,1852.21 C 152.37,1851.96 152.41,1851.80 152.53,1851.45 C 152.64,1851.10 152.70,1850.90 152.86,1850.46 C 153.02,1850.02 153.11,1849.77 153.32,1849.24 C 153.53,1848.71 153.65,1848.42 153.91,1847.81 C 154.18,1847.20 154.32,1846.87 154.64,1846.18 C 154.96,1845.50 155.14,1845.13 155.51,1844.38 C 155.89,1843.62 156.09,1843.22 156.51,1842.40 C 156.94,1841.58 157.17,1841.15 157.65,1840.27 C 158.13,1839.39 158.38,1838.93 158.91,1838.00 C 159.43,1837.07 159.71,1836.59 160.28,1835.61 C 160.85,1834.62 161.14,1834.12 161.75,1833.09 C 162.36,1832.07 162.68,1831.54 163.32,1830.47 C 163.97,1829.41 164.30,1828.86 164.98,1827.76 C 165.66,1826.65 166.00,1826.09 166.71,1824.95 C 167.41,1823.82 167.77,1823.24 168.50,1822.07 C 169.23,1820.90 169.60,1820.30 170.35,1819.10 C 171.09,1817.91 171.47,1817.30 172.24,1816.07 C 173.00,1814.85 173.39,1814.23 174.16,1812.98 C 174.93,1811.73 175.32,1811.10 176.11,1809.83 C 176.89,1808.56 177.28,1807.92 178.07,1806.63 C 178.86,1805.33 179.25,1804.68 180.04,1803.37 C 180.83,1802.07 181.22,1801.41 182.01,1800.08 C 182.80,1798.76 183.19,1798.09 183.97,1796.75 C 184.75,1795.41 185.15,1794.74 185.92,1793.39 C 186.70,1792.03 187.08,1791.35 187.85,1789.99 C 188.62,1788.63 189.00,1787.95 189.76,1786.58 C 190.51,1785.21 190.89,1784.52 191.63,1783.14 C 192.38,1781.76 192.75,1781.07 193.48,1779.69 C 194.21,1778.31 194.57,1777.61 195.28,1776.23 C 196.00,1774.84 196.35,1774.14 197.05,1772.76 C 197.75,1771.37 198.10,1770.67 198.78,1769.28 C 199.47,1767.89 199.81,1767.20 200.47,1765.81 C 201.14,1764.42 201.47,1763.72 202.12,1762.33 C 202.77,1760.95 203.09,1760.25 203.72,1758.87 C 204.36,1757.48 204.67,1756.79 205.29,1755.41 C 205.90,1754.02 206.21,1753.33 206.81,1751.95 C 207.41,1750.57 207.71,1749.89 208.29,1748.51 C 208.88,1747.13 209.16,1746.45 209.73,1745.07 C 210.30,1743.70 210.58,1743.02 211.14,1741.65 C 211.69,1740.28 211.97,1739.60 212.51,1738.23 C 213.05,1736.86 213.31,1736.18 213.84,1734.82 C 214.37,1733.46 214.63,1732.78 215.14,1731.41 C 215.65,1730.05 215.91,1729.37 216.41,1728.01 C 216.91,1726.65 217.16,1725.97 217.65,1724.61 C 218.14,1723.25 218.38,1722.57 218.86,1721.20 C 219.33,1719.84 219.57,1719.16 220.04,1717.79 C 220.50,1716.43 220.73,1715.74 221.19,1714.37 C 221.65,1713.00 221.87,1712.32 222.32,1710.94 C 222.76,1709.57 222.98,1708.88 223.42,1707.49 C 223.85,1706.11 224.07,1705.42 224.49,1704.03 C 224.91,1702.63 225.12,1701.94 225.54,1700.54 C 225.95,1699.13 226.15,1698.43 226.55,1697.02 C 226.95,1695.60 227.15,1694.90 227.54,1693.47 C 227.93,1692.05 228.12,1691.33 228.50,1689.89 C 228.87,1688.45 229.06,1687.73 229.42,1686.28 C 229.78,1684.82 229.96,1684.09 230.30,1682.62 C 230.65,1681.16 230.82,1680.42 231.15,1678.93 C 231.48,1677.45 231.64,1676.70 231.95,1675.20 C 232.26,1673.70 232.41,1672.95 232.71,1671.43 C 233.00,1669.92 233.14,1669.15 233.41,1667.62 C 233.69,1666.09 233.82,1665.32 234.07,1663.77 C 234.32,1662.22 234.44,1661.45 234.66,1659.89 C 234.89,1658.32 235.00,1657.54 235.20,1655.97 C 235.40,1654.39 235.49,1653.60 235.67,1652.02 C 235.84,1650.43 235.92,1649.64 236.07,1648.04 C 236.21,1646.45 236.28,1645.65 236.40,1644.05 C 236.52,1642.45 236.57,1641.65 236.66,1640.04 C 236.75,1638.44 236.78,1637.63 236.84,1636.03 C 236.90,1634.43 236.92,1633.62 236.95,1632.02 C 236.98,1630.42 236.99,1629.62 236.99,1628.02 C 236.99,1626.43 236.99,1625.63 236.96,1624.04 C 236.93,1622.46 236.91,1621.66 236.86,1620.09 C 236.80,1618.52 236.77,1617.73 236.69,1616.18 C 236.61,1614.62 236.56,1613.85 236.46,1612.31 C 236.35,1610.78 236.30,1610.02 236.17,1608.51 C 236.05,1607.00 235.98,1606.24 235.84,1604.76 C 235.70,1603.28 235.62,1602.54 235.47,1601.09 C 235.31,1599.64 235.23,1598.92 235.06,1597.50 C 234.89,1596.09 234.80,1595.39 234.63,1594.01 C 234.45,1592.62 234.36,1591.94 234.18,1590.60 C 233.99,1589.26 233.90,1588.60 233.72,1587.30 C 233.54,1586.01 233.44,1585.37 233.26,1584.11 C 233.08,1582.86 232.99,1582.25 232.81,1581.04 C 232.64,1579.83 232.55,1579.24 232.38,1578.09 C 232.21,1576.93 232.13,1576.37 231.98,1575.26 C 231.82,1574.16 231.74,1573.62 231.60,1572.57 C 231.46,1571.52 231.39,1571.00 231.26,1570.01 C 231.13,1569.01 231.07,1568.53 230.96,1567.59 C 230.85,1566.65 230.80,1566.19 230.71,1565.31 C 230.62,1564.43 230.58,1564.00 230.50,1563.18 C 230.43,1562.35 230.40,1561.95 230.35,1561.19 C 230.29,1560.42 230.27,1560.05 230.24,1559.34 C 230.20,1558.63 230.19,1558.29 230.17,1557.64 C 230.16,1556.99 230.16,1556.68 230.16,1556.07 C 230.16,1555.47 230.16,1555.19 230.18,1554.64 C 230.19,1554.09 230.21,1553.82 230.24,1553.32 C 230.27,1552.81 230.29,1552.57 230.33,1552.10 C 230.37,1551.64 230.40,1551.41 230.45,1550.98 C 230.51,1550.54 230.54,1550.33 230.61,1549.92 C 230.67,1549.51 230.71,1549.31 230.79,1548.92 C 230.87,1548.52 230.91,1548.33 231.01,1547.94 C 231.10,1547.54 231.15,1547.35 231.27,1546.96 C 231.38,1546.56 231.44,1546.37 231.57,1545.96 C 231.70,1545.56 231.77,1545.35 231.93,1544.93 C 232.08,1544.50 232.16,1544.29 232.35,1543.83 C 232.54,1543.38 232.63,1543.15 232.85,1542.66 C 233.07,1542.18 233.19,1541.93 233.45,1541.40 C 233.71,1540.88 233.85,1540.61 234.15,1540.04 C 234.46,1539.48 234.62,1539.19 234.97,1538.58 C 235.33,1537.97 235.51,1537.65 235.92,1537.00 C 236.33,1536.34 236.54,1536.01 237.01,1535.31 C 237.47,1534.61 237.71,1534.25 238.23,1533.50 C 238.75,1532.76 239.03,1532.37 239.61,1531.59 C 240.19,1530.80 240.49,1530.39 241.13,1529.56 C 241.77,1528.73 242.11,1528.30 242.81,1527.43 C 243.51,1526.56 243.87,1526.11 244.63,1525.20 C 245.39,1524.29 245.79,1523.82 246.60,1522.87 C 247.42,1521.92 247.84,1521.44 248.72,1520.46 C 249.59,1519.47 250.04,1518.97 250.96,1517.95 C 251.89,1516.93 252.36,1516.41 253.34,1515.36 C 254.31,1514.31 254.81,1513.77 255.83,1512.69 C 256.85,1511.60 257.37,1511.05 258.44,1509.94 C 259.50,1508.82 260.04,1508.26 261.14,1507.11 C 262.24,1505.96 262.80,1505.38 263.94,1504.21 C 265.07,1503.03 265.65,1502.44 266.81,1501.23 C 267.98,1500.03 268.57,1499.42 269.76,1498.18 C 270.95,1496.95 271.55,1496.32 272.76,1495.06 C 273.98,1493.80 274.59,1493.16 275.82,1491.86 C 277.05,1490.57 277.67,1489.91 278.91,1488.58 C 280.15,1487.26 280.77,1486.59 282.02,1485.23 C 283.27,1483.87 283.90,1483.18 285.15,1481.78 C 286.41,1480.39 287.03,1479.69 288.29,1478.26 C 289.54,1476.83 290.17,1476.10 291.41,1474.64 C 292.66,1473.17 293.28,1472.43 294.52,1470.92 C 295.76,1469.42 296.37,1468.65 297.60,1467.11 C 298.82,1465.56 299.43,1464.78 300.63,1463.19 C 301.83,1461.60 302.43,1460.79 303.61,1459.16 C 304.78,1457.53 305.37,1456.70 306.51,1455.02 C 307.66,1453.34 308.23,1452.49 309.34,1450.76 C 310.45,1449.04 310.99,1448.16 312.06,1446.39 C 313.13,1444.62 313.65,1443.72 314.67,1441.90 C 315.69,1440.08 316.19,1439.16 317.15,1437.30 C 318.12,1435.44 318.59,1434.50 319.49,1432.60 C 320.39,1430.70 320.83,1429.74 321.66,1427.80 C 322.50,1425.86 322.90,1424.88 323.66,1422.92 C 324.43,1420.95 324.79,1419.96 325.48,1417.97 C 326.17,1415.99 326.49,1414.99 327.10,1412.99 C 327.71,1410.99 327.99,1409.98 328.52,1407.98 C 329.04,1405.97 329.29,1404.97 329.73,1402.97 C 330.18,1400.97 330.38,1399.97 330.75,1397.99 C 331.11,1396.01 331.28,1395.02 331.57,1393.06 C 331.86,1391.10 331.98,1390.13 332.20,1388.21 C 332.42,1386.29 332.51,1385.33 332.66,1383.45 C 332.82,1381.57 332.87,1380.64 332.97,1378.81 C 333.06,1376.99 333.09,1376.08 333.14,1374.31 C 333.18,1372.53 333.19,1371.66 333.19,1369.94 C 333.19,1368.23 333.17,1367.38 333.14,1365.73 C 333.10,1364.08 333.07,1363.26 333.00,1361.68 C 332.94,1360.09 332.89,1359.31 332.81,1357.78 C 332.72,1356.26 332.66,1355.51 332.56,1354.05 C 332.46,1352.59 332.40,1351.88 332.28,1350.48 C 332.17,1349.09 332.11,1348.41 331.99,1347.07 C 331.87,1345.74 331.81,1345.09 331.69,1343.82 C 331.57,1342.55 331.51,1341.93 331.39,1340.72 C 331.28,1339.50 331.22,1338.91 331.11,1337.76 C 331.00,1336.60 330.94,1336.04 330.84,1334.93 C 330.74,1333.83 330.69,1333.29 330.60,1332.24 C 330.51,1331.19 330.46,1330.67 330.38,1329.67 C 330.30,1328.66 330.27,1328.17 330.20,1327.20 C 330.13,1326.23 330.10,1325.76 330.05,1324.83 C 330.00,1323.90 329.97,1323.44 329.93,1322.54 C 329.89,1321.64 329.87,1321.20 329.85,1320.32 C 329.82,1319.44 329.81,1319.01 329.80,1318.16 C 329.78,1317.30 329.78,1316.88 329.78,1316.03 C 329.78,1315.18 329.79,1314.77 329.80,1313.92 C 329.81,1313.08 329.82,1312.67 329.85,1311.82 C 329.88,1310.98 329.90,1310.56 329.94,1309.71 C 329.98,1308.85 330.01,1308.43 330.06,1307.56 C 330.12,1306.69 330.15,1306.25 330.22,1305.36 C 330.29,1304.47 330.33,1304.02 330.42,1303.10 C 330.50,1302.18 330.55,1301.72 330.65,1300.76 C 330.75,1299.81 330.80,1299.33 330.92,1298.33 C 331.03,1297.33 331.10,1296.83 331.23,1295.79 C 331.35,1294.75 331.42,1294.22 331.57,1293.12 C 331.71,1292.03 331.78,1291.48 331.94,1290.33 C 332.09,1289.18 332.17,1288.60 332.33,1287.39 C 332.50,1286.18 332.58,1285.57 332.75,1284.30 C 332.92,1283.03 333.01,1282.38 333.18,1281.04 C 333.35,1279.70 333.44,1279.02 333.61,1277.61 C 333.78,1276.20 333.87,1275.48 334.03,1274.00 C 334.19,1272.52 334.27,1271.76 334.42,1270.21 C 334.56,1268.65 334.64,1267.85 334.76,1266.22 C 334.89,1264.59 334.95,1263.75 335.04,1262.04 C 335.13,1260.33 335.17,1259.45 335.23,1257.66 C 335.28,1255.87 335.30,1254.96 335.30,1253.09 C 335.30,1251.22 335.29,1250.27 335.23,1248.33 C 335.17,1246.40 335.13,1245.41 335.00,1243.40 C 334.86,1241.40 334.78,1240.38 334.57,1238.32 C 334.35,1236.25 334.23,1235.20 333.92,1233.09 C 333.61,1230.98 333.43,1229.91 333.03,1227.76 C 332.62,1225.62 332.39,1224.53 331.88,1222.36 C 331.36,1220.19 331.08,1219.09 330.46,1216.91 C 329.83,1214.73 329.50,1213.63 328.76,1211.46 C 328.03,1209.28 327.64,1208.19 326.80,1206.04 C 325.96,1203.88 325.51,1202.81 324.57,1200.68 C 323.62,1198.56 323.12,1197.50 322.08,1195.42 C 321.05,1193.34 320.50,1192.31 319.37,1190.27 C 318.24,1188.24 317.65,1187.24 316.44,1185.26 C 315.23,1183.29 314.60,1182.31 313.32,1180.40 C 312.04,1178.48 311.38,1177.54 310.03,1175.68 C 308.68,1173.82 307.99,1172.91 306.59,1171.12 C 305.19,1169.32 304.47,1168.44 303.01,1166.70 C 301.56,1164.96 300.82,1164.11 299.33,1162.43 C 297.83,1160.75 297.07,1159.92 295.54,1158.29 C 294.01,1156.67 293.23,1155.87 291.67,1154.29 C 290.10,1152.71 289.31,1151.93 287.72,1150.40 C 286.13,1148.87 285.33,1148.11 283.72,1146.62 C 282.11,1145.13 281.30,1144.40 279.67,1142.95 C 278.05,1141.50 277.23,1140.78 275.59,1139.37 C 273.96,1137.95 273.13,1137.26 271.49,1135.88 C 269.85,1134.50 269.02,1133.82 267.38,1132.47 C 265.73,1131.12 264.91,1130.45 263.27,1129.13 C 261.63,1127.81 260.81,1127.16 259.18,1125.87 C 257.55,1124.58 256.74,1123.94 255.12,1122.68 C 253.51,1121.42 252.70,1120.79 251.11,1119.56 C 249.52,1118.32 248.73,1117.71 247.16,1116.50 C 245.60,1115.29 244.82,1114.69 243.29,1113.51 C 241.77,1112.32 241.01,1111.74 239.52,1110.58 C 238.04,1109.42 237.30,1108.85 235.86,1107.72 C 234.43,1106.59 233.72,1106.04 232.33,1104.94 C 230.95,1103.84 230.27,1103.30 228.95,1102.23 C 227.64,1101.16 226.99,1100.64 225.74,1099.61 C 224.49,1098.57 223.88,1098.06 222.71,1097.07 C 221.54,1096.07 220.97,1095.59 219.88,1094.63 C 218.80,1093.68 218.27,1093.21 217.28,1092.31 C 216.28,1091.40 215.80,1090.96 214.90,1090.10 C 214.00,1089.25 213.57,1088.83 212.77,1088.03 C 211.97,1087.24 211.60,1086.85 210.90,1086.12 C 210.21,1085.39 209.89,1085.04 209.30,1084.38 C 208.71,1083.73 208.45,1083.42 207.97,1082.84 C 207.49,1082.27 207.28,1082.00 206.91,1081.52 C 206.54,1081.03 206.38,1080.81 206.11,1080.43 C 205.84,1080.05 205.73,1079.88 205.55,1079.60 C 205.38,1079.32 205.32,1079.21 205.22,1079.05 C 205.13,1078.88 205.11,1078.83 205.08,1078.77 C 205.05,1078.72 205.06,1078.73 205.08,1078.78 C 205.10,1078.84 205.13,1078.90 205.18,1079.05 C 205.23,1079.21 205.27,1079.32 205.33,1079.55 C 205.40,1079.79 205.44,1079.94 205.49,1080.23 C 205.55,1080.52 205.58,1080.69 205.62,1081.02 C 205.66,1081.34 205.68,1081.52 205.70,1081.83 C 205.72,1082.15 205.72,1082.32 205.72,1082.61 C 205.71,1082.89 205.70,1083.03 205.69,1083.25 C 205.67,1083.48 205.66,1083.58 205.64,1083.71 C 205.62,1083.85 205.61,1083.90 205.60,1083.93 C 205.60,1083.97 205.59,1083.96 205.62,1083.88 C 205.64,1083.80 205.65,1083.73 205.72,1083.54 C 205.78,1083.34 205.82,1083.21 205.94,1082.90 C 206.05,1082.58 206.12,1082.39 206.30,1081.96 C 206.48,1081.53 206.58,1081.29 206.83,1080.75 C 207.07,1080.21 207.21,1079.91 207.53,1079.27 C 207.84,1078.63 208.02,1078.28 208.41,1077.55 C 208.79,1076.81 209.00,1076.41 209.46,1075.59 C 209.92,1074.76 210.16,1074.33 210.69,1073.42 C 211.21,1072.51 211.49,1072.03 212.08,1071.04 C 212.66,1070.05 212.97,1069.53 213.62,1068.47 C 214.26,1067.41 214.60,1066.85 215.29,1065.72 C 215.99,1064.58 216.35,1064.00 217.09,1062.79 C 217.83,1061.58 218.21,1060.96 218.99,1059.69 C 219.77,1058.41 220.17,1057.75 220.98,1056.41 C 221.79,1055.06 222.21,1054.37 223.05,1052.96 C 223.88,1051.54 224.31,1050.82 225.16,1049.33 C 226.01,1047.84 226.44,1047.08 227.30,1045.51 C 228.16,1043.95 228.59,1043.15 229.45,1041.51 C 230.31,1039.87 230.74,1039.03 231.58,1037.31 C 232.43,1035.59 232.85,1034.71 233.68,1032.90 C 234.50,1031.10 234.91,1030.18 235.71,1028.29 C 236.50,1026.40 236.89,1025.43 237.63,1023.46 C 238.38,1021.48 238.75,1020.47 239.43,1018.41 C 240.12,1016.35 240.45,1015.29 241.06,1013.15 C 241.68,1011.00 241.97,1009.91 242.49,1007.68 C 243.02,1005.46 243.26,1004.33 243.69,1002.03 C 244.11,999.74 244.30,998.57 244.61,996.23 C 244.92,993.88 245.05,992.68 245.24,990.29 C 245.42,987.90 245.49,986.69 245.54,984.27 C 245.60,981.86 245.59,980.64 245.51,978.21 C 245.44,975.79 245.36,974.57 245.15,972.17 C 244.94,969.76 244.80,968.55 244.45,966.17 C 244.11,963.79 243.91,962.61 243.44,960.28 C 242.98,957.95 242.72,956.79 242.14,954.52 C 241.57,952.24 241.25,951.12 240.58,948.92 C 239.91,946.71 239.54,945.63 238.78,943.50 C 238.03,941.37 237.62,940.33 236.79,938.28 C 235.96,936.23 235.52,935.22 234.63,933.25 C 233.73,931.28 233.27,930.32 232.32,928.42 C 231.38,926.53 230.89,925.61 229.91,923.79 C 228.92,921.97 228.42,921.08 227.40,919.33 C 226.39,917.59 225.87,916.73 224.83,915.05 C 223.79,913.37 223.27,912.55 222.21,910.93 C 221.16,909.31 220.62,908.52 219.56,906.96 C 218.49,905.40 217.95,904.64 216.88,903.13 C 215.81,901.62 215.28,900.88 214.21,899.43 C 213.14,897.97 212.60,897.25 211.53,895.84 C 210.47,894.43 209.94,893.74 208.88,892.37 C 207.82,891.00 207.30,890.33 206.26,889.00 C 205.21,887.68 204.69,887.02 203.67,885.74 C 202.64,884.45 202.13,883.81 201.13,882.56 C 200.12,881.31 199.62,880.69 198.64,879.47 C 197.66,878.25 197.17,877.65 196.22,876.47 C 195.26,875.29 194.79,874.70 193.87,873.55 C 192.94,872.40 192.49,871.83 191.59,870.71 C 190.70,869.59 190.26,869.04 189.40,867.95 C 188.55,866.86 188.13,866.33 187.31,865.27 C 186.49,864.21 186.08,863.69 185.30,862.67 C 184.52,861.64 184.14,861.14 183.40,860.14 C 182.66,859.15 182.30,858.66 181.60,857.69 C 180.90,856.73 180.56,856.26 179.90,855.32 C 179.25,854.39 178.93,853.93 178.31,853.03 C 177.70,852.13 177.40,851.69 176.83,850.82 C 176.26,849.95 175.99,849.52 175.46,848.68 C 174.93,847.84 174.68,847.43 174.19,846.63 C 173.71,845.82 173.47,845.42 173.03,844.64 C 172.58,843.87 172.37,843.49 171.96,842.74 C 171.56,841.99 171.36,841.62 170.99,840.90 C 170.62,840.18 170.45,839.83 170.12,839.14 C 169.78,838.45 169.63,838.11 169.32,837.44 C 169.02,836.77 168.88,836.45 168.61,835.80 C 168.34,835.16 168.22,834.84 167.98,834.22 C 167.74,833.60 167.63,833.29 167.41,832.69 C 167.20,832.08 167.10,831.78 166.91,831.19 C 166.72,830.61 166.63,830.32 166.47,829.74 C 166.30,829.16 166.22,828.88 166.08,828.31 C 165.93,827.74 165.86,827.46 165.74,826.90 C 165.61,826.34 165.55,826.07 165.44,825.51 C 165.34,824.95 165.29,824.68 165.19,824.12 C 165.10,823.56 165.06,823.29 164.99,822.73 C 164.91,822.18 164.88,821.90 164.82,821.34 C 164.77,820.78 164.74,820.50 164.70,819.93 C 164.66,819.37 164.64,819.08 164.61,818.51 C 164.59,817.94 164.58,817.65 164.57,817.08 C 164.56,816.50 164.56,816.20 164.57,815.62 C 164.57,815.03 164.58,814.73 164.60,814.14 C 164.63,813.54 164.64,813.24 164.68,812.63 C 164.72,812.03 164.75,811.72 164.80,811.11 C 164.86,810.49 164.89,810.18 164.97,809.56 C 165.04,808.94 165.09,808.62 165.18,807.99 C 165.27,807.36 165.32,807.04 165.43,806.40 C 165.55,805.75 165.61,805.43 165.74,804.78 C 165.87,804.13 165.93,803.81 166.08,803.15 C 166.23,802.49 166.31,802.16 166.48,801.50 C 166.65,800.84 166.74,800.50 166.92,799.83 C 167.11,799.16 167.21,798.82 167.42,798.15 C 167.63,797.47 167.74,797.13 167.97,796.44 C 168.19,795.76 168.31,795.41 168.57,794.72 C 168.82,794.03 168.95,793.68 169.22,792.98 C 169.49,792.28 169.63,791.93 169.93,791.22 C 170.23,790.51 170.38,790.15 170.70,789.44 C 171.02,788.72 171.19,788.36 171.53,787.63 C 171.88,786.90 172.06,786.54 172.43,785.80 C 172.81,785.06 173.00,784.69 173.40,783.94 C 173.80,783.19 174.01,782.81 174.44,782.05 C 174.87,781.28 175.09,780.90 175.56,780.12 C 176.02,779.35 176.26,778.96 176.75,778.16 C 177.25,777.37 177.50,776.97 178.03,776.17 C 178.56,775.36 178.83,774.95 179.40,774.13 C 179.97,773.30 180.26,772.89 180.86,772.05 C 181.46,771.20 181.77,770.78 182.42,769.92 C 183.06,769.06 183.39,768.63 184.07,767.75 C 184.75,766.87 185.10,766.43 185.83,765.53 C 186.55,764.64 186.92,764.18 187.69,763.27 C 188.45,762.35 188.85,761.89 189.65,760.95 C 190.46,760.02 190.88,759.55 191.73,758.59 C 192.58,757.64 193.01,757.16 193.91,756.18 C 194.80,755.21 195.26,754.72 196.19,753.73 C 197.13,752.73 197.61,752.23 198.58,751.22 C 199.56,750.21 200.06,749.70 201.08,748.67 C 202.10,747.64 202.62,747.12 203.68,746.07 C 204.74,745.02 205.28,744.49 206.38,743.42 C 207.47,742.35 208.03,741.81 209.17,740.72 C 210.30,739.64 210.88,739.09 212.05,737.98 C 213.22,736.88 213.81,736.32 215.02,735.20 C 216.22,734.07 216.83,733.51 218.06,732.37 C 219.30,731.22 219.92,730.65 221.18,729.49 C 222.45,728.33 223.08,727.74 224.37,726.56 C 225.66,725.38 226.31,724.79 227.62,723.59 C 228.93,722.39 229.59,721.79 230.92,720.57 C 232.26,719.35 232.93,718.74 234.27,717.50 C 235.62,716.26 236.30,715.64 237.66,714.38 C 239.02,713.12 239.71,712.48 241.08,711.20 C 242.45,709.92 243.14,709.27 244.52,707.97 C 245.90,706.66 246.60,706.00 247.98,704.67 C 249.36,703.34 250.06,702.67 251.44,701.32 C 252.83,699.96 253.52,699.28 254.91,697.89 C 256.29,696.51 256.98,695.81 258.36,694.40 C 259.74,692.99 260.42,692.27 261.79,690.83 C 263.16,689.38 263.85,688.65 265.20,687.17 C 266.56,685.69 267.23,684.94 268.57,683.43 C 269.91,681.91 270.58,681.14 271.90,679.59 C 273.22,678.03 273.88,677.24 275.17,675.65 C 276.47,674.05 277.11,673.24 278.38,671.60 C 279.64,669.95 280.27,669.12 281.50,667.43 C 282.74,665.74 283.35,664.88 284.54,663.15 C 285.73,661.41 286.32,660.52 287.47,658.74 C 288.62,656.95 289.19,656.04 290.28,654.20 C 291.38,652.36 291.92,651.42 292.96,649.53 C 294.00,647.64 294.51,646.68 295.49,644.75 C 296.46,642.81 296.94,641.82 297.84,639.84 C 298.75,637.85 299.18,636.85 300.01,634.82 C 300.84,632.80 301.24,631.77 301.98,629.72 C 302.72,627.66 303.08,626.62 303.73,624.53 C 304.39,622.45 304.70,621.40 305.26,619.30 C 305.83,617.20 306.09,616.14 306.56,614.04 C 307.03,611.93 307.25,610.87 307.62,608.78 C 308.00,606.68 308.17,605.63 308.46,603.55 C 308.75,601.47 308.87,600.43 309.07,598.38 C 309.27,596.33 309.35,595.30 309.47,593.29 C 309.59,591.28 309.63,590.28 309.68,588.31 C 309.73,586.35 309.73,585.37 309.71,583.46 C 309.70,581.55 309.67,580.61 309.59,578.76 C 309.52,576.91 309.47,576.00 309.34,574.21 C 309.22,572.43 309.15,571.55 308.99,569.83 C 308.82,568.12 308.73,567.28 308.54,565.63 C 308.35,563.98 308.24,563.18 308.03,561.60 C 307.82,560.02 307.70,559.25 307.48,557.75 C 307.25,556.24 307.13,555.51 306.90,554.08 C 306.66,552.64 306.54,551.94 306.30,550.58 C 306.07,549.21 305.95,548.55 305.71,547.25 C 305.48,545.96 305.36,545.33 305.14,544.10 C 304.92,542.87 304.80,542.27 304.59,541.11 C 304.38,539.94 304.28,539.38 304.08,538.28 C 303.88,537.18 303.79,536.65 303.61,535.61 C 303.43,534.57 303.34,534.07 303.18,533.09 C 303.02,532.11 302.94,531.64 302.80,530.71 C 302.66,529.79 302.60,529.35 302.48,528.48 C 302.36,527.61 302.30,527.19 302.20,526.37 C 302.11,525.55 302.06,525.15 301.98,524.38 C 301.90,523.61 301.87,523.23 301.81,522.50 C 301.75,521.76 301.72,521.41 301.68,520.71 C 301.64,520.01 301.62,519.67 301.60,519.00 C 301.57,518.33 301.56,518.00 301.56,517.36 C 301.55,516.71 301.55,516.39 301.56,515.75 C 301.57,515.12 301.58,514.81 301.60,514.18 C 301.63,513.55 301.64,513.24 301.68,512.62 C 301.72,511.99 301.75,511.68 301.81,511.04 C 301.87,510.40 301.90,510.08 301.98,509.43 C 302.05,508.78 302.10,508.45 302.19,507.78 C 302.29,507.11 302.34,506.77 302.46,506.06 C 302.58,505.36 302.64,505.01 302.78,504.27 C 302.92,503.54 302.99,503.16 303.16,502.39 C 303.32,501.61 303.41,501.22 303.60,500.40 C 303.79,499.59 303.89,499.17 304.10,498.31 C 304.32,497.45 304.43,497.01 304.67,496.10 C 304.91,495.19 305.04,494.72 305.31,493.76 C 305.58,492.80 305.72,492.31 306.01,491.29 C 306.30,490.28 306.46,489.76 306.77,488.69 C 307.09,487.62 307.26,487.08 307.60,485.95 C 307.94,484.83 308.11,484.25 308.47,483.07 C 308.83,481.89 309.02,481.29 309.40,480.05 C 309.77,478.81 309.97,478.18 310.36,476.88 C 310.75,475.59 310.95,474.93 311.35,473.57 C 311.75,472.21 311.95,471.52 312.36,470.10 C 312.76,468.69 312.96,467.96 313.37,466.49 C 313.77,465.01 313.97,464.26 314.37,462.72 C 314.76,461.18 314.96,460.40 315.34,458.80 C 315.72,457.20 315.91,456.39 316.27,454.73 C 316.63,453.07 316.81,452.22 317.15,450.51 C 317.48,448.79 317.64,447.92 317.94,446.15 C 318.24,444.37 318.38,443.47 318.63,441.65 C 318.89,439.82 319.01,438.90 319.21,437.03 C 319.42,435.15 319.51,434.20 319.66,432.29 C 319.81,430.38 319.87,429.41 319.96,427.46 C 320.04,425.51 320.07,424.53 320.09,422.55 C 320.11,420.58 320.11,419.58 320.05,417.59 C 320.00,415.60 319.96,414.60 319.84,412.60 C 319.71,410.60 319.63,409.60 319.44,407.60 C 319.24,405.61 319.12,404.61 318.85,402.63 C 318.59,400.64 318.43,399.65 318.10,397.69 C 317.76,395.73 317.57,394.75 317.17,392.82 C 316.77,390.89 316.55,389.93 316.09,388.03 C 315.64,386.14 315.39,385.20 314.88,383.35 C 314.37,381.50 314.10,380.58 313.54,378.78 C 312.99,376.98 312.70,376.09 312.10,374.34 C 311.51,372.59 311.20,371.73 310.58,370.03 C 309.96,368.34 309.64,367.50 308.99,365.86 C 308.35,364.22 308.02,363.42 307.36,361.83 C 306.70,360.25 306.37,359.47 305.70,357.95 C 305.04,356.43 304.70,355.68 304.03,354.21 C 303.36,352.74 303.03,352.03 302.37,350.62 C 301.71,349.21 301.38,348.52 300.73,347.17 C 300.08,345.81 299.75,345.15 299.12,343.86 C 298.49,342.56 298.18,341.93 297.57,340.70 C 296.96,339.46 296.66,338.85 296.08,337.68 C 295.50,336.50 295.22,335.92 294.67,334.80 C 294.12,333.68 293.85,333.14 293.34,332.08 C 292.83,331.02 292.59,330.51 292.11,329.50 C 291.63,328.50 291.50,328.19 290.96,327.04 C 290.43,325.89 290.03,325.03 289.44,323.75 C 288.85,322.48 288.55,321.86 288.00,320.67 C 287.44,319.48 287.17,318.91 286.66,317.81 C 286.15,316.71 285.91,316.19 285.45,315.17 C 284.98,314.15 284.76,313.67 284.35,312.72 C 283.93,311.78 283.73,311.33 283.36,310.46 C 282.99,309.58 282.81,309.16 282.48,308.35 C 282.15,307.53 282.00,307.14 281.70,306.37 C 281.41,305.60 281.27,305.23 281.01,304.49 C 280.75,303.76 280.63,303.41 280.39,302.69 C 280.15,301.98 280.04,301.64 279.83,300.93 C 279.61,300.23 279.51,299.89 279.31,299.17 C 279.11,298.46 279.02,298.11 278.83,297.38 C 278.64,296.64 278.56,296.28 278.38,295.51 C 278.20,294.73 278.11,294.34 277.93,293.52 C 277.76,292.70 277.67,292.28 277.50,291.40 C 277.33,290.52 277.24,290.06 277.07,289.11 C 276.89,288.15 276.80,287.66 276.63,286.63 C 276.45,285.60 276.36,285.07 276.17,283.95 C 275.99,282.84 275.89,282.26 275.70,281.07 C 275.50,279.88 275.40,279.26 275.19,277.99 C 274.97,276.71 274.87,276.06 274.63,274.71 C 274.40,273.36 274.28,272.67 274.03,271.25 C 273.77,269.84 273.64,269.11 273.36,267.64 C 273.08,266.17 272.93,265.42 272.62,263.91 C 272.30,262.39 272.14,261.62 271.80,260.07 C 271.45,258.52 271.27,257.74 270.90,256.17 C 270.52,254.61 270.32,253.82 269.92,252.25 C 269.51,250.68 269.30,249.89 268.87,248.34 C 268.44,246.78 268.22,246.00 267.77,244.47 C 267.32,242.93 267.08,242.17 266.62,240.67 C 266.15,239.18 265.91,238.43 265.44,236.98 C 264.97,235.54 264.73,234.82 264.26,233.43 C 263.80,232.04 263.56,231.35 263.10,230.02 C 262.64,228.70 262.41,228.05 261.98,226.79 C 261.54,225.54 261.32,224.93 260.90,223.75 C 260.49,222.57 260.29,222.00 259.91,220.91 C 259.53,219.81 259.34,219.28 259.00,218.27 C 258.66,217.26 258.49,216.78 258.19,215.86 C 257.89,214.94 257.75,214.50 257.49,213.66 C 257.23,212.83 257.11,212.43 256.89,211.69 C 256.68,210.94 256.58,210.59 256.40,209.92 C 256.23,209.25 256.15,208.95 256.01,208.35 C 255.87,207.76 255.81,207.49 255.70,206.96 C 255.59,206.44 255.55,206.20 255.47,205.72 C 255.39,205.24 255.35,205.02 255.29,204.58 C 255.23,204.13 255.21,203.93 255.16,203.49 C 255.12,203.06 255.10,202.86 255.07,202.41 C 255.05,201.96 255.03,201.75 255.02,201.27 C 255.00,200.78 255.00,200.25 255.00,-0.00 Z" fill="#FFFF00"/>
</svg>